<?xml version="1.0" encoding="UTF-8" standalone="no"?> <svg xmlns="http://www.w3.org/2000/svg" viewBox="0 0 32 32"><defs><style>.cls-1{fill:#ffab4c;}.cls-2{fill:#ff3636;}.cls-3{fill:#aeeadd;}</style></defs><title>temperature</title><g id="Layer_5" data-name="Layer 5"><path class="cls-1" d="M18.75,23.5a5.5,5.5,0,1,1-8.5-4.61V6a3,3,0,0,1,6,0V18.89A5.48,5.48,0,0,1,18.75,23.5Z"/><path class="cls-2" d="M14.2,22.25a1,1,0,0,0,.05-.25V14a1,1,0,0,0-2,0v8a1,1,0,0,0,.05.25,2,2,0,1,0,1.9,0Z"/><path class="cls-3" d="M22.25,19h-3a1,1,0,0,1,0-2h3a1,1,0,0,1,0,2Z"/><path class="cls-3" d="M24.25,16h-5a1,1,0,0,1,0-2h5a1,1,0,0,1,0,2Z"/><path class="cls-3" d="M22.25,13h-3a1,1,0,0,1,0-2h3a1,1,0,0,1,0,2Z"/><path class="cls-3" d="M24.25,10h-5a1,1,0,0,1,0-2h5a1,1,0,0,1,0,2Z"/><path class="cls-3" d="M22.25,7h-3a1,1,0,0,1,0-2h3a1,1,0,0,1,0,2Z"/><path class="cls-3" d="M24.25,4h-5a1,1,0,0,1,0-2h5a1,1,0,0,1,0,2Z"/></g></svg>